<svg xmlns="http://www.w3.org/2000/svg" viewBox="0 0 67.636 76.794"><defs><style>.cls-1{fill:#fff;}</style></defs><title>icon-menu01</title><g id="レイヤー_2" data-name="レイヤー 2"><g id="レイヤー_1-2" data-name="レイヤー 1"><path class="cls-1" d="M12.085,24.253A7.651,7.651,0,1,0,4.434,16.6,7.66,7.66,0,0,0,12.085,24.253Zm0-13.3A5.651,5.651,0,1,1,6.434,16.6,5.658,5.658,0,0,1,12.085,10.951Z"/><path class="cls-1" d="M65.885,58.97,52.583,43.9a7,7,0,0,0-5.249-2.369H36.352L25.374,27.384a6.994,6.994,0,0,0-12.383,2.89c-2.8-3.19-7.048-5.816-12.316-4a1,1,0,1,0,.651,1.891c6.094-2.095,10.186,3.011,11.925,5.859a7.005,7.005,0,0,0,1.063,1.949l13.08,16.849a6.958,6.958,0,0,0,5.53,2.707H44.175L55.387,68.233l0,0,0,0,7.381,8.223a1,1,0,0,0,1.488-1.336l-4.083-4.549c.152.01.3.024.459.024A7,7,0,0,0,65.885,58.97Zm-1.941,8.381a5,5,0,0,1-7.057-.441L45.376,53.865a1,1,0,0,0-.75-.339h-11.7a4.967,4.967,0,0,1-3.95-1.933L15.966,34.836a17.217,17.217,0,0,0-.893-1.7,4.991,4.991,0,0,1,4.761-6.464,5.216,5.216,0,0,1,.635.039,4.969,4.969,0,0,1,3.325,1.895L35.072,43.14a1,1,0,0,0,.79.386H47.334a5,5,0,0,1,3.749,1.692l13.3,15.075a5,5,0,0,1-.441,7.058Z"/><path class="cls-1" d="M40.42,15.036a1,1,0,0,0,1.414,0A8.8,8.8,0,0,0,43.157,4.279H52.7a3.394,3.394,0,0,1,3.39,3.389V34.116a1,1,0,0,0,2,0V7.668A5.4,5.4,0,0,0,52.7,2.279H41.51a8.816,8.816,0,0,0-12.14.293,1,1,0,0,0,0,1.414Zm0-11.05h0a6.816,6.816,0,0,1,.655,8.877L31.543,3.331A6.823,6.823,0,0,1,40.419,3.986Z"/></g></g></svg>