<svg xmlns="http://www.w3.org/2000/svg" viewBox="0 0 72.213 77.508"><defs><style>.cls-1{fill:#fff;}</style></defs><title>icon-other02</title><g id="レイヤー_2" data-name="レイヤー 2"><g id="レイヤー_1-2" data-name="レイヤー 1"><path class="cls-1" d="M64.844,36.819a1,1,0,0,0-1.109.878C62.563,47.84,51.559,66.5,48.214,71.976c-1.489,2.439-3.089,3.745-4.25,3.5-1.132-.239-2.563-2.142-3.186-6.771l-.086-.637c-1.185-8.839-2.306-17.188-7.721-17.188s-6.535,8.345-7.722,17.179l-.087.646c-.623,4.629-2.054,6.532-3.185,6.771-1.185.249-2.762-1.063-4.25-3.5C14.382,66.5,3.378,47.841,2.206,37.7,1.019,27.419,5.066,19.521,13.033,16.57c6.274-2.323,9.727-1.322,12.906-.148a14.969,14.969,0,0,1,6.174,6.044,1,1,0,0,0,1.715-1.029,20.594,20.594,0,0,0-2.553-3.428,12.31,12.31,0,0,0,1.7.12,17.481,17.481,0,0,0,6.4-1.472c3.366-1.261,6.845-2.566,13.538-.087a1,1,0,0,0,.7-1.875c-7.395-2.739-11.4-1.236-14.935.09a15.688,15.688,0,0,1-5.7,1.344,15.693,15.693,0,0,1-5.7-1.344l-.582-.217a9.3,9.3,0,0,0-2.5-.82c-2.911-.792-6.489-1.041-11.857.947C3.45,17.987-1.081,26.672.22,37.928c1.218,10.549,12.4,29.525,15.8,35.091,2.576,4.216,4.892,4.726,6.37,4.414,2.4-.505,4.088-3.509,4.755-8.46l.087-.649c1.02-7.593,2.075-15.444,5.74-15.444s4.719,7.856,5.739,15.454l.086.639c.667,4.951,2.355,7.955,4.757,8.46a3.553,3.553,0,0,0,.721.075c1.462,0,3.46-.908,5.647-4.489,3.4-5.566,14.583-24.544,15.8-35.091A1,1,0,0,0,64.844,36.819Z"/><path class="cls-1" d="M71.314,22.452c-8.8-.894-9.23-9.483-9.245-9.847a1.033,1.033,0,0,0-1-.964,1,1,0,0,0-1,.963c-.014.365-.444,8.954-9.245,9.848a1,1,0,0,0,0,1.99c8.8.9,9.231,9.484,9.245,9.847a1,1,0,0,0,2,0c.013-.365.4-8.947,9.245-9.847a1,1,0,0,0,0-1.99ZM61.07,29.941a11.416,11.416,0,0,0-6.082-6.494,11.413,11.413,0,0,0,6.082-6.494,11.415,11.415,0,0,0,6.081,6.494A11.418,11.418,0,0,0,61.07,29.941Z"/><path class="cls-1" d="M45,6.583A3.725,3.725,0,0,1,48.4,10.21a1,1,0,0,0,2,0A3.747,3.747,0,0,1,53.81,6.583a1,1,0,0,0,0-1.99A3.726,3.726,0,0,1,50.4.966a1,1,0,0,0-2,0A3.746,3.746,0,0,1,45,4.593a1,1,0,0,0,0,1.99ZM49.4,4.116a5.39,5.39,0,0,0,1.41,1.472A5.39,5.39,0,0,0,49.4,7.06a5.36,5.36,0,0,0-1.41-1.472A5.36,5.36,0,0,0,49.4,4.116Z"/></g></g></svg>