<svg xmlns="http://www.w3.org/2000/svg" viewBox="0 0 62.44 73.914"><defs><style>.cls-1{fill:#fff;}</style></defs><title>icon-access</title><g id="レイヤー_2" data-name="レイヤー 2"><g id="レイヤー_1-2" data-name="レイヤー 1"><path class="cls-1" d="M40.354,17.417a8.531,8.531,0,0,0-6.865.04A6.274,6.274,0,0,1,31.22,18a6.274,6.274,0,0,1-2.269-.546l-.293-.107a4.511,4.511,0,0,0-1.18-.375,8.526,8.526,0,0,0-5.392.442c-4.112,1.523-6.211,5.508-5.615,10.66.526,4.558,5.016,12.31,6.923,15.431,1.287,2.108,2.541,2.345,3.358,2.172.915-.193,2.092-1.068,2.506-4.144l.037-.278c.351-2.617.833-6.2,1.925-6.2s1.573,3.585,1.925,6.2l.037.278c.414,3.076,1.591,3.951,2.5,4.144a2.138,2.138,0,0,0,.436.045c.8,0,1.847-.454,2.923-2.217,1.907-3.121,6.4-10.873,6.923-15.431C46.565,22.925,44.466,18.94,40.354,17.417Zm3.629,10.431c-.393,3.4-3.69,9.78-6.644,14.618-.676,1.108-1.165,1.275-1.24,1.256-.124-.026-.678-.544-.935-2.453l-.038-.277c-.547-4.081-1.064-7.936-3.906-7.936s-3.359,3.855-3.907,7.936l-.037.277c-.257,1.909-.811,2.427-.935,2.453-.072.02-.564-.148-1.24-1.256-2.955-4.838-6.251-11.217-6.644-14.618-.49-4.238,1.086-7.356,4.323-8.555a6.449,6.449,0,0,1,5.167-.074,5.921,5.921,0,0,1,2.416,2.387,1,1,0,0,0,1.715-1.029c-.129-.215-.261-.416-.4-.606a8.958,8.958,0,0,0,2.508-.641,6.57,6.57,0,0,1,5.469-.037C42.9,20.492,44.473,23.61,43.983,27.848Z"/><path class="cls-1" d="M31.22,0A31.255,31.255,0,0,0,0,31.22c0,9.229,5.324,19.523,15.4,29.767A104.724,104.724,0,0,0,30.673,73.75a1,1,0,0,0,1.1,0A104.808,104.808,0,0,0,47.043,60.987c10.073-10.244,15.4-20.538,15.4-29.767A31.255,31.255,0,0,0,31.22,0ZM45.644,59.558A104.624,104.624,0,0,1,31.221,71.706C27.165,68.907,2,50.748,2,31.22a29.22,29.22,0,0,1,58.44,0C60.44,42.193,52.394,52.687,45.644,59.558Z"/></g></g></svg>