<svg xmlns="http://www.w3.org/2000/svg" viewBox="0 0 80.196 72.363"><defs><style>.cls-1{fill:#fff;}</style></defs><title>icon-hour</title><g id="レイヤー_2" data-name="レイヤー 2"><g id="レイヤー_1-2" data-name="レイヤー 1"><path class="cls-1" d="M73.926,41.16a9.255,9.255,0,0,0-7.542.044,7.046,7.046,0,0,1-2.557.613,7.036,7.036,0,0,1-2.556-.613c-.1-.04-.214-.079-.32-.118a5.166,5.166,0,0,0-1.24-.4,9.248,9.248,0,0,0-5.983.478c-4.512,1.671-6.816,6.05-6.161,11.715.58,5.031,5.555,13.621,7.667,17.081,1.4,2.284,2.736,2.543,3.613,2.358.98-.206,2.243-1.154,2.694-4.5l.042-.311c.417-3.108.937-6.976,2.244-6.976s1.827,3.871,2.245,6.981l.041.306c.45,3.35,1.714,4.3,2.694,4.5a2.156,2.156,0,0,0,.46.049c.851,0,1.982-.492,3.152-2.408,2.112-3.459,7.087-12.049,7.668-17.08C80.741,47.21,78.438,42.831,73.926,41.16ZM78.1,52.645c-.551,4.767-5.8,13.657-7.389,16.268-.693,1.136-1.3,1.487-1.493,1.444s-.832-.649-1.123-2.815l-.041-.305c-.6-4.482-1.171-8.715-4.228-8.715S60.2,62.753,59.6,67.232l-.042.31c-.292,2.166-.925,2.774-1.123,2.815-.216.043-.8-.308-1.495-1.444-1.593-2.611-6.837-11.5-7.387-16.268s1.224-8.26,4.869-9.609a7.252,7.252,0,0,1,5.81-.083,6.667,6.667,0,0,1,2.737,2.7,1,1,0,0,0,1.715-1.029c-.18-.3-.365-.569-.552-.825a9.437,9.437,0,0,0,2.953-.718,7.375,7.375,0,0,1,6.144-.041C76.875,44.385,78.649,47.888,78.1,52.645Z"/><path class="cls-1" d="M62.617,20.789a1,1,0,0,0,1-1V5.655a1,1,0,0,0-1-1h-11V1a1,1,0,0,0-2,0V4.655H14V1a1,1,0,0,0-2,0V4.655H1a1,1,0,0,0-1,1V19.789a1,1,0,0,0,1,1ZM2,6.655H12V9.979a1,1,0,0,0,2,0V6.655H49.617V9.979a1,1,0,0,0,2,0V6.655h10V18.789H2Z"/><path class="cls-1" d="M42.069,57.363H2.832V27.1a1,1,0,0,0-2,0V58.363a1,1,0,0,0,1,1H42.069a1,1,0,0,0,0-2Z"/><path class="cls-1" d="M62.617,26.1a1,1,0,0,0-1,1v7.815a1,1,0,0,0,2,0V27.1A1,1,0,0,0,62.617,26.1Z"/><path class="cls-1" d="M14.468,28.765H12.141a1,1,0,1,0,0,2h2.327a1,1,0,1,0,0-2Z"/><path class="cls-1" d="M21.95,28.765H19.622a1,1,0,0,0,0,2H21.95a1,1,0,1,0,0-2Z"/><path class="cls-1" d="M29.433,28.765H27.1a1,1,0,0,0,0,2h2.329a1,1,0,0,0,0-2Z"/><path class="cls-1" d="M36.915,28.765H34.587a1,1,0,0,0,0,2h2.328a1,1,0,1,0,0-2Z"/><path class="cls-1" d="M44.4,28.765H42.069a1,1,0,0,0,0,2H44.4a1,1,0,0,0,0-2Z"/><path class="cls-1" d="M51.879,28.765H49.551a1,1,0,0,0,0,2h2.328a1,1,0,1,0,0-2Z"/><path class="cls-1" d="M14.468,35.883H12.141a1,1,0,1,0,0,2h2.327a1,1,0,0,0,0-2Z"/><path class="cls-1" d="M21.95,35.883H19.622a1,1,0,0,0,0,2H21.95a1,1,0,0,0,0-2Z"/><path class="cls-1" d="M29.433,35.883H27.1a1,1,0,0,0,0,2h2.329a1,1,0,0,0,0-2Z"/><path class="cls-1" d="M36.915,35.883H34.587a1,1,0,0,0,0,2h2.328a1,1,0,0,0,0-2Z"/><path class="cls-1" d="M44.4,35.883H42.069a1,1,0,0,0,0,2H44.4a1,1,0,0,0,0-2Z"/><path class="cls-1" d="M51.879,35.883H49.551a1,1,0,0,0,0,2h2.328a1,1,0,0,0,0-2Z"/><path class="cls-1" d="M14.468,43H12.141a1,1,0,1,0,0,2h2.327a1,1,0,0,0,0-2Z"/><path class="cls-1" d="M21.95,43H19.622a1,1,0,0,0,0,2H21.95a1,1,0,0,0,0-2Z"/><path class="cls-1" d="M29.433,43H27.1a1,1,0,1,0,0,2h2.329a1,1,0,0,0,0-2Z"/><path class="cls-1" d="M36.915,43H34.587a1,1,0,0,0,0,2h2.328a1,1,0,0,0,0-2Z"/><path class="cls-1" d="M44.4,43H42.069a1,1,0,0,0,0,2H44.4a1,1,0,0,0,0-2Z"/></g></g></svg>