<svg xmlns="http://www.w3.org/2000/svg" viewBox="0 0 35.392 34.564"><defs><style>.cls-1{fill:#fff;}</style></defs><title>icon-recommend</title><g id="レイヤー_2" data-name="レイヤー 2"><g id="レイヤー_1-2" data-name="レイヤー 1"><path class="cls-1" d="M28.637.836A9.991,9.991,0,0,0,20.5.883a7.719,7.719,0,0,1-2.807.672A7.719,7.719,0,0,1,14.889.883L14.554.76A5.439,5.439,0,0,0,13.2.319a9.958,9.958,0,0,0-6.44.517C1.894,2.637-.588,7.36.118,13.47c.629,5.447,6.027,14.767,8.318,18.52,1.489,2.437,2.907,2.719,3.832,2.524,1.037-.219,2.375-1.232,2.859-4.821l.044-.332C15.629,25.948,16.2,21.7,17.7,21.7s2.065,4.242,2.523,7.65l.046.341c.483,3.589,1.821,4.6,2.858,4.821a2.351,2.351,0,0,0,.481.05c.9,0,2.1-.525,3.351-2.574,2.291-3.751,7.689-13.066,8.319-18.519C35.98,7.36,33.5,2.637,28.637.836Zm4.65,12.4c-.6,5.2-6.3,14.869-8.039,17.707-.842,1.379-1.5,1.653-1.713,1.61-.358-.076-1-.972-1.288-3.132l-.046-.34c-.648-4.825-1.26-9.383-4.5-9.383S13.837,24.265,13.19,29.1l-.045.33c-.291,2.16-.93,3.056-1.288,3.132-.239.048-.872-.231-1.714-1.61C8.408,28.108,2.7,18.436,2.105,13.24,1.512,8.107,3.51,4.17,7.45,2.711a7.972,7.972,0,0,1,6.416-.073,7.392,7.392,0,0,1,2.972,2.949,1,1,0,1,0,1.715-1.029,11.865,11.865,0,0,0-.688-1.015,9.842,9.842,0,0,0,3.34-.787,8.1,8.1,0,0,1,6.737-.045C31.882,4.17,33.88,8.107,33.287,13.24Z"/></g></g></svg>