<svg xmlns="http://www.w3.org/2000/svg" viewBox="0 0 49.073 101.863"><defs><style>.cls-1{fill:#fff;}</style></defs><title>icon-other02_1</title><g id="レイヤー_2" data-name="レイヤー 2"><g id="レイヤー_1-2" data-name="レイヤー 1"><path class="cls-1" d="M39.843,1.252c-5.562-2.235-8.572-1.008-11.23.072a10.433,10.433,0,0,1-4.077,1.05,10.433,10.433,0,0,1-4.076-1.05L20,1.139A6.9,6.9,0,0,0,18.149.481c-2.19-.646-4.881-.85-8.919.771C2.585,3.92-.8,10.923.162,19.988c.581,5.449,4.22,13.675,7.217,19.7v11.08a1,1,0,0,0,1,1h3.1c.174,1.585.566,5.15,1.048,9.48-1.824.023-2.951-.013-3-.014A.983.983,0,0,0,8.5,62.2a1,1,0,0,0,.962,1.036c.152.006.944.032,2.205.032.331,0,.7,0,1.09-.006.307,2.75.638,5.7.967,8.6-1.623.072-2.631.076-2.673.076a1,1,0,0,0,0,2c.174,0,1.246,0,2.9-.075.334,2.92.656,5.7.935,8.045-1.51.03-2.44.007-2.477.006h-.029a1,1,0,0,0-.028,2c.1,0,.539.014,1.25.014.416,0,.941-.006,1.526-.018.091.743.176,1.424.251,2.014l.076.595c.253,1.979.5,3.854.808,5.58-1.263.032-2.051.016-2.084.013h-.024a1,1,0,0,0-.025,2c.073,0,.35.008.8.008s1.036-.007,1.75-.028c1.115,4.668,3.115,7.78,8.089,7.78,6.03,0,7.693-4.569,8.7-10.949a17.549,17.549,0,0,0,2.294-1.233A1,1,0,1,0,34.668,88c-.274.178-.563.345-.858.508.087-.655.174-1.319.261-2l.077-.6c.171-1.336.385-3.1.625-5.133a27.985,27.985,0,0,0,2.817-1.194A1,1,0,0,0,36.7,77.8c-.536.266-1.093.514-1.666.746.313-2.7.656-5.7,1-8.7a24.9,24.9,0,0,0,3.24-1.593,1,1,0,0,0-1.024-1.719,21.142,21.142,0,0,1-1.957,1.019c.324-2.884.637-5.694.911-8.166a29.864,29.864,0,0,0,3.364-1.533,1,1,0,0,0-.951-1.76c-.688.372-1.412.716-2.163,1.037.267-2.415.476-4.314.59-5.357h3.1a1,1,0,0,0,1-1V39.454a.981.981,0,0,0-.116-.445c2.927-5.952,6.323-13.773,6.882-19.02C49.877,10.923,46.488,3.92,39.843,1.252ZM24.762,99.863c-3.484,0-5.05-2-6.038-5.871a49.623,49.623,0,0,0,12.553-2.214C30.308,97.1,28.86,99.863,24.762,99.863Zm7.4-14.2-.076.6c-.148,1.161-.292,2.245-.441,3.26a46.06,46.06,0,0,1-13.358,2.488c-.311-1.663-.573-3.578-.85-5.751l-.076-.595c-.07-.541-.146-1.154-.229-1.825a67,67,0,0,0,15.543-2.352C32.481,83.113,32.307,84.541,32.163,85.661Zm.77-6.356a64.358,64.358,0,0,1-16.042,2.529c-.28-2.343-.6-5.14-.941-8.086a74.386,74.386,0,0,0,17.981-3.125C33.586,73.663,33.242,76.663,32.933,79.305Zm1.248-10.894c-6,2.2-13.638,3.026-18.459,3.334-.326-2.866-.656-5.8-.961-8.534,5.21-.162,13.348-.808,20.346-3.081C34.824,62.677,34.506,65.524,34.181,68.411ZM35.35,57.934C28.4,60.36,19.844,61.034,14.537,61.2c-.469-4.216-.856-7.733-1.043-9.436H36.03C35.9,53.006,35.653,55.2,35.35,57.934Zm4.8-8.167H9.379V40.454H40.145Zm6.777-29.99c-.43,4.038-2.8,10.487-6.848,18.677H9c-4.052-8.19-6.418-14.639-6.848-18.678C1.285,11.654,4.21,5.422,9.976,3.107c4.521-1.817,6.907-1.065,9.281-.113a11.237,11.237,0,0,1,4.4,4.713,1,1,0,0,0,1.75-.969,16.711,16.711,0,0,0-1.6-2.4c.236.02.478.032.726.032a12.3,12.3,0,0,0,4.83-1.2c2.53-1.028,4.92-2,9.731-.069C44.863,5.422,47.788,11.654,46.922,19.777Z"/></g></g></svg>