<svg xmlns="http://www.w3.org/2000/svg" viewBox="0 0 59.044 59.043"><defs><style>.cls-1{fill:#fff;}</style></defs><title>icon-menu02</title><g id="レイヤー_2" data-name="レイヤー 2"><g id="レイヤー_1-2" data-name="レイヤー 1"><path class="cls-1" d="M34.414,19.882a3.862,3.862,0,0,1,4.748,4.748,1,1,0,0,0,.712,1.222.979.979,0,0,0,.256.034,1,1,0,0,0,.966-.745,5.934,5.934,0,0,0-.875-4.9l6.17-6.17A7.852,7.852,0,0,0,56.743,2.3,7.851,7.851,0,0,0,44.977,12.652l-6.17,6.171a5.931,5.931,0,0,0-4.905-.875,1,1,0,0,0,.512,1.934ZM47.048,3.715a5.855,5.855,0,1,1,0,8.281A5.818,5.818,0,0,1,47.048,3.715Z"/><path class="cls-1" d="M19.544,32.933a1.029,1.029,0,0,0-1.414,0L.293,50.771a1,1,0,0,0,0,1.414L6.859,58.75a1,1,0,0,0,1.414,0L26.11,40.914a1,1,0,0,0,0-1.414ZM7.566,56.629,2.414,51.478,18.837,35.054l5.152,5.153Z"/><path class="cls-1" d="M58.751,50.679,36.423,28.351v0h0L31.062,22.99a5.086,5.086,0,0,0-6.854-.287L13.41,11.9a1,1,0,0,0-.86-.281l-5.112.8L4.641,1.991a1,1,0,0,0-1.932.518l3.03,11.3a1,1,0,0,0,1.119.729l5.5-.855L22.793,24.116a5.05,5.05,0,0,0,.289,6.855l8.557,8.556v0h0l3.2,3.2h0l15.931,15.93a1,1,0,0,0,1.414,0l6.566-6.566a1,1,0,0,0,0-1.414ZM33.761,38.822l5.152-5.153L40.7,35.454l-5.152,5.153Zm-3.2-3.2,5.153-5.152L37.5,32.255l-5.152,5.152ZM23.59,27.368a3.074,3.074,0,0,1,.906-2.189l.775-.775a3.1,3.1,0,0,1,4.377,0L34.3,29.056l-5.152,5.153L24.5,29.557A3.076,3.076,0,0,1,23.59,27.368Zm27.888,29.17L36.96,42.021l5.152-5.152L56.63,51.386Z"/></g></g></svg>