<svg xmlns="http://www.w3.org/2000/svg" viewBox="0 0 56.785 104.372"><defs><style>.cls-1{fill:#fff;}</style></defs><title>icon-other01</title><g id="レイヤー_2" data-name="レイヤー 2"><g id="レイヤー_1-2" data-name="レイヤー 1"><path class="cls-1" d="M46.12,1.326c-6.385-2.367-9.845-1.069-12.9.077a13.308,13.308,0,0,1-4.83,1.142A13.318,13.318,0,0,1,23.562,1.4l-.527-.2a8.269,8.269,0,0,0-2.121-.7c-2.518-.686-5.61-.9-10.25.816C2.983,4.17-.933,11.668.189,21.381A14.818,14.818,0,0,1,.21,23.172C.15,25.591.068,28.9,2.946,29.733c3.457,1,8.159-.184,13.6-1.549,4.557-1.143,9.27-2.325,13.7-2.325,9.492,0,22.674,4.33,22.806,4.374a1,1,0,0,0,1.247-.588,35.152,35.152,0,0,0,2.3-8.264C57.718,11.668,53.8,4.17,46.12,1.326Zm8.489,19.827a31.166,31.166,0,0,1-1.842,6.889c-3.209-1-14.068-4.183-22.52-4.183-4.673,0-9.726,1.266-14.183,2.385-4.95,1.241-9.625,2.413-12.565,1.567-1.291-.372-1.349-2.217-1.29-4.59a15.9,15.9,0,0,0-.033-2.068C1.167,12.416,4.6,5.705,11.359,3.2a16.789,16.789,0,0,1,5.85-1.194,14.074,14.074,0,0,1,5.138,1.078,12.7,12.7,0,0,1,5.188,5.107A1,1,0,1,0,29.25,7.163,17.985,17.985,0,0,0,27.3,4.482a10.493,10.493,0,0,0,1.1.063,15.1,15.1,0,0,0,5.533-1.269C36.784,2.2,39.742,1.1,45.425,3.2,52.184,5.705,55.618,12.416,54.609,21.153Z"/><path class="cls-1" d="M49.136,76.23A10.308,10.308,0,0,1,45.1,73.9,17.538,17.538,0,0,1,43.012,70c-2.22-4.954-5.577-12.423-14.868-11.839-8.969.58-11.53,5.653-13.79,10.13a22.851,22.851,0,0,1-2.7,4.5,10.342,10.342,0,0,1-4.777,3.059c-2.134.8-4.34,1.636-3.023,5.86,2.123,6.805,5.6,12.075,8.141,15.922.676,1.024,1.3,1.964,1.824,2.829,2.25,3.682,4.3,4.128,5.61,3.846,1.5-.315,3.444-1.849,4.187-7.369l.074-.553c.866-6.446,1.76-13.112,4.776-13.112s3.91,6.666,4.775,13.112l.074.553c.743,5.52,2.688,7.055,4.188,7.37a3.152,3.152,0,0,0,.649.068c1.294,0,3.053-.793,4.959-3.915a200.575,200.575,0,0,0,9.781-18.318h0a3.885,3.885,0,0,0,.218-3.1C52.493,77.558,50.862,76.913,49.136,76.23Zm1.915,5.12h0A198.122,198.122,0,0,1,41.4,99.413c-1.243,2.036-2.545,3.131-3.49,2.932-.921-.193-2.093-1.787-2.616-5.679l-.075-.551c-1.025-7.635-1.993-14.847-6.757-14.847S22.729,88.48,21.7,96.115l-.074.551c-.524,3.892-1.7,5.486-2.617,5.679-.951.2-2.249-.9-3.491-2.932-.539-.882-1.172-1.842-1.862-2.887-2.611-3.957-5.861-8.882-7.9-15.417C5.005,78.686,5.5,78.5,7.578,77.716a12.357,12.357,0,0,0,5.6-3.638,24.672,24.672,0,0,0,2.962-4.891c2.214-4.386,4.305-8.529,12.133-9.035,7.913-.534,10.684,5.683,12.914,10.66A18.324,18.324,0,0,0,43.6,75.223a11.945,11.945,0,0,0,4.8,2.866c1.322.524,2.57,1.018,2.86,1.713A2.1,2.1,0,0,1,51.051,81.35Z"/><path class="cls-1" d="M28.392,32.735a1,1,0,0,0-1,1V47.994l-2.964-2.965a1,1,0,0,0-1.415,1.414l4.671,4.67a.988.988,0,0,0,.323.217,1.011,1.011,0,0,0,.385.078,1.009,1.009,0,0,0,.709-.3l4.669-4.67a1,1,0,0,0-1.414-1.414l-2.964,2.964V33.735A1,1,0,0,0,28.392,32.735Z"/></g></g></svg>