<svg xmlns="http://www.w3.org/2000/svg" viewBox="0 0 72.213 77.508"><defs><style>.cls-1{fill:#fff;}</style></defs><title>icon-menu03</title><g id="レイヤー_2" data-name="レイヤー 2"><g id="レイヤー_1-2" data-name="レイヤー 1"><path class="cls-1" d="M64.843,36.819a1,1,0,0,0-1.108.878c-1.172,10.144-12.176,28.8-15.52,34.279-1.488,2.437-3.06,3.744-4.251,3.5-1.131-.238-2.562-2.142-3.185-6.77l-.087-.647c-1.186-8.835-2.307-17.18-7.722-17.18s-6.536,8.35-7.721,17.189l-.086.638c-.623,4.628-2.054,6.532-3.186,6.77-1.162.243-2.762-1.061-4.251-3.5C14.382,66.5,3.377,47.835,2.206,37.7,1.019,27.418,5.067,19.521,13.033,16.57c6.276-2.324,9.727-1.322,12.907-.148a14.97,14.97,0,0,1,6.173,6.043,1,1,0,0,0,1.715-1.029,20.625,20.625,0,0,0-2.553-3.427,12.307,12.307,0,0,0,1.7.12,17.492,17.492,0,0,0,6.4-1.472c3.364-1.262,6.848-2.566,13.538-.087a1,1,0,0,0,.7-1.876c-7.4-2.738-11.4-1.235-14.936.091a15.683,15.683,0,0,1-5.7,1.344,15.693,15.693,0,0,1-5.7-1.344l-.584-.218a9.245,9.245,0,0,0-2.5-.821c-2.912-.789-6.489-1.036-11.848.949C3.451,17.986-1.08,26.671.219,37.927c1.218,10.543,12.4,29.525,15.8,35.091,2.188,3.582,4.185,4.49,5.648,4.49a3.553,3.553,0,0,0,.721-.075c2.4-.505,4.09-3.51,4.757-8.461l.086-.638c1.02-7.6,2.073-15.455,5.739-15.455s4.72,7.852,5.74,15.446l.087.647c.667,4.951,2.355,7.956,4.755,8.461,1.48.311,3.8-.2,6.37-4.415,3.4-5.564,14.581-24.541,15.8-35.091A1,1,0,0,0,64.843,36.819Z"/><path class="cls-1" d="M71.314,22.453c-8.8-.895-9.23-9.484-9.245-9.847a1,1,0,0,0-2,0c-.013.365-.4,8.948-9.245,9.847a1,1,0,0,0,0,1.989c8.8.895,9.23,9.484,9.245,9.847a1,1,0,0,0,1,.965h0a1,1,0,0,0,1-.963c.015-.365.444-8.954,9.245-9.849a1,1,0,0,0,0-1.989ZM61.07,29.941a11.411,11.411,0,0,0-6.081-6.494,11.411,11.411,0,0,0,6.081-6.494,11.413,11.413,0,0,0,6.082,6.494A11.416,11.416,0,0,0,61.07,29.941Z"/><path class="cls-1" d="M45,6.583A3.724,3.724,0,0,1,48.4,10.209a1,1,0,0,0,2,0,3.746,3.746,0,0,1,3.408-3.627,1,1,0,0,0,0-1.99A3.726,3.726,0,0,1,50.4.966a1,1,0,0,0-2,0A3.746,3.746,0,0,1,45,4.593a1,1,0,0,0,0,1.99ZM49.4,4.117a5.372,5.372,0,0,0,1.41,1.471A5.372,5.372,0,0,0,49.4,7.059a5.368,5.368,0,0,0-1.409-1.471A5.368,5.368,0,0,0,49.4,4.117Z"/></g></g></svg>