<svg xmlns="http://www.w3.org/2000/svg" viewBox="0 0 79.981 161.019"><defs><style>.cls-1{fill:#333;}</style></defs><title>logo_pc</title><g id="レイヤー_2" data-name="レイヤー 2"><g id="レイヤー_1-2" data-name="レイヤー 1"><path class="cls-1" d="M37.526,38.079H0V0H37.526Z"/><path class="cls-1" d="M37.526,79.988H0V41.908H37.526Z"/><path class="cls-1" d="M79.981,51.75H41.4V41.908H79.981Z"/><path class="cls-1" d="M79.981,65.868H41.4V56.026H79.981Z"/><path class="cls-1" d="M79.981,79.988H41.4V70.144H79.981Z"/><path class="cls-1" d="M58.754,17.126H41.4V0h17.35Z"/><path class="cls-1" d="M79.981,17.126H62.631V0h17.35Z"/><path class="cls-1" d="M58.754,38.079H41.4V20.953h17.35Z"/><path class="cls-1" d="M79.981,38.079H62.631V20.953h17.35Z"/><path d="M7.135,113.019h2.992a5.89,5.89,0,0,0,2.528-.5,3.946,3.946,0,0,0,1.64-1.344,6.116,6.116,0,0,0,.832-1.776,7.579,7.579,0,0,0-.016-4.024,5.74,5.74,0,0,0-.872-1.776,4.076,4.076,0,0,0-1.632-1.3,5.711,5.711,0,0,0-2.416-.48H7.135Zm1.392-1.3V103.1h1.952a3.114,3.114,0,0,1,1.984.64,3.457,3.457,0,0,1,1.152,1.584,6.619,6.619,0,0,1,.152,3.632,4.9,4.9,0,0,1-.584,1.368,2.785,2.785,0,0,1-1.144,1.024,3.8,3.8,0,0,1-1.736.376Z"/><path d="M26.655,113.019v-1.328H21.039v-3.808h3.472v-1.312H21.039v-3.44H26.3v-1.312H19.647v11.2Z"/><path d="M39.023,101.819H37.631V109.8c0,.16.01.432.032.816q-.208-.416-.464-.832l-4.96-7.968H30.831v11.2h1.392v-8q0-.3-.032-.784.159.319.448.784l5.04,8h1.344Z"/><path d="M50.671,103.147v-1.328H43.039v1.328h3.12v9.872h1.392v-9.872Z"/><path d="M62.207,113.019l-3.968-11.2h-1.3l-3.968,11.2h1.456l.944-2.736h4.448l.96,2.736Zm-6.416-3.968,1.456-4.144q.175-.511.352-1.136.08.353.352,1.136l1.44,4.144Z"/><path d="M73.086,113.019v-1.344h-5.5v-9.856H66.19v11.2Z"/><path d="M9.223,136.347a2.932,2.932,0,0,0,1.024-2.368,3.268,3.268,0,0,0-.288-1.4,2.686,2.686,0,0,0-.848-1.032,7.685,7.685,0,0,0-1.04-.664,11.015,11.015,0,0,0-1.216-.52q-.593-.224-.928-.368a5.728,5.728,0,0,1-.728-.384,1.677,1.677,0,0,1-.576-.544,1.272,1.272,0,0,1-.184-.672,1.285,1.285,0,0,1,.512-1.08,2.237,2.237,0,0,1,1.392-.392,2.581,2.581,0,0,1,1.328.32,1.81,1.81,0,0,1,.768.816l1.28-.432a2.511,2.511,0,0,0-1.12-1.448,3.938,3.938,0,0,0-2.16-.552,3.72,3.72,0,0,0-2.512.8A2.5,2.5,0,0,0,3,128.4a2.626,2.626,0,0,0,.2,1.032,2.68,2.68,0,0,0,.488.784,3.57,3.57,0,0,0,.776.608,7.022,7.022,0,0,0,.864.456q.377.16.952.368a6.622,6.622,0,0,1,1.864.96,1.885,1.885,0,0,1,.072,2.808A2.468,2.468,0,0,1,6.6,135.9a2.8,2.8,0,0,1-2.624-1.664l-1.312.48a3.513,3.513,0,0,0,1.432,1.8,4.366,4.366,0,0,0,2.472.7A3.979,3.979,0,0,0,9.223,136.347Z"/><path d="M21.079,127.147v-1.328H13.447v1.328h3.12v9.872h1.392v-9.872Z"/><path d="M32.935,137.019l-3.968-11.2h-1.3l-3.968,11.2h1.456l.944-2.736h4.448l.96,2.736Zm-6.416-3.968,1.456-4.144q.175-.512.352-1.136.079.353.352,1.136l1.44,4.144Z"/><path d="M43.511,127.147v-1.328H35.879v1.328H39v9.872h1.392v-9.872Z"/><path d="M49.27,137.019v-11.2H47.878v11.2Z"/><path d="M60.8,136.875a3.872,3.872,0,0,0,1.36-.9,4.9,4.9,0,0,0,.9-1.328,6.566,6.566,0,0,0,.512-1.568,9.184,9.184,0,0,0,0-3.328,6.566,6.566,0,0,0-.512-1.568,4.9,4.9,0,0,0-.9-1.328,3.872,3.872,0,0,0-1.36-.9,4.852,4.852,0,0,0-1.848-.336,4.671,4.671,0,0,0-2.216.5,3.833,3.833,0,0,0-1.488,1.36,6.581,6.581,0,0,0-.792,1.84,8.643,8.643,0,0,0,0,4.176,6.581,6.581,0,0,0,.792,1.84,3.833,3.833,0,0,0,1.488,1.36,4.671,4.671,0,0,0,2.216.5A4.852,4.852,0,0,0,60.8,136.875Zm-4.432-2.4a5.2,5.2,0,0,1-.552-1.424,7.31,7.31,0,0,1-.176-1.632,6.607,6.607,0,0,1,.184-1.568,6.013,6.013,0,0,1,.552-1.432,2.86,2.86,0,0,1,1.032-1.088,2.892,2.892,0,0,1,1.544-.408,2.82,2.82,0,0,1,1.944.688,3.57,3.57,0,0,1,1.072,1.656,7.319,7.319,0,0,1,.3,2.152,6.859,6.859,0,0,1-.176,1.56,5.553,5.553,0,0,1-.544,1.432,2.843,2.843,0,0,1-1.04,1.08,2.93,2.93,0,0,1-1.552.408,3.031,3.031,0,0,1-1.544-.384A2.791,2.791,0,0,1,56.366,134.475Z"/><path d="M75.83,125.819H74.438V133.8q0,.24.032.816-.208-.415-.464-.832l-4.96-7.968H67.638v11.2H69.03v-8q0-.3-.032-.784.16.32.448.784l5.04,8H75.83Z"/><path d="M32.1,161.019v-11.2H30.7v4.736h-5.28v-4.736H24.031v11.2h1.392v-5.152H30.7v5.152Z"/><path d="M45.311,161.019l-3.968-11.2h-1.3l-3.968,11.2h1.456l.944-2.736h4.448l.96,2.736ZM38.9,157.051l1.456-4.144q.176-.512.352-1.136.079.353.352,1.136l1.44,4.144Z"/><path d="M56.191,161.019v-1.344h-5.5v-9.856H49.3v11.2Z"/></g></g></svg>