<svg xmlns="http://www.w3.org/2000/svg" viewBox="0 0 432.317 59.991"><defs><style>.cls-1{fill:#333;}</style></defs><title>logo_sp</title><g id="レイヤー_2" data-name="レイヤー 2"><g id="レイヤー_1-2" data-name="レイヤー 1"><path class="cls-1" d="M28.145,28.559H0V0H28.145Z"/><path class="cls-1" d="M28.145,59.991H0V31.431H28.145Z"/><path class="cls-1" d="M59.985,38.812H31.053V31.431H59.985Z"/><path class="cls-1" d="M59.985,49.4H31.053V42.019H59.985Z"/><path class="cls-1" d="M59.985,59.991H31.053V52.608H59.985Z"/><path class="cls-1" d="M44.065,12.844H31.053V0H44.065Z"/><path class="cls-1" d="M59.985,12.844H46.973V0H59.985Z"/><path class="cls-1" d="M44.065,28.559H31.053V15.714H44.065Z"/><path class="cls-1" d="M59.985,28.559H46.973V15.714H59.985Z"/><path d="M88.411,40.021h5.423a10.679,10.679,0,0,0,4.582-.914,7.151,7.151,0,0,0,2.972-2.436,11.11,11.11,0,0,0,1.508-3.219,13.722,13.722,0,0,0-.029-7.293,10.4,10.4,0,0,0-1.58-3.219,7.389,7.389,0,0,0-2.958-2.349,10.355,10.355,0,0,0-4.379-.87H88.411Zm2.523-2.349V22.041h3.538a5.651,5.651,0,0,1,3.6,1.16,6.256,6.256,0,0,1,2.088,2.871,11.989,11.989,0,0,1,.275,6.583,8.883,8.883,0,0,1-1.058,2.479A5.042,5.042,0,0,1,97.3,36.99a6.881,6.881,0,0,1-3.146.682Z"/><path d="M123.79,40.021V37.614H113.611v-6.9H119.9V28.334h-6.293V22.1h9.541V19.721H111.088v20.3Z"/><path d="M146.207,19.721h-2.523V34.192q0,.435.058,1.479-.376-.755-.841-1.508l-8.99-14.442h-2.552v20.3h2.523v-14.5q0-.55-.058-1.421.289.58.812,1.421l9.135,14.5h2.436Z"/><path d="M167.319,22.128V19.721H153.486v2.407h5.655V40.021h2.523V22.128Z"/><path d="M188.228,40.021l-7.192-20.3h-2.349l-7.192,20.3h2.639l1.711-4.959h8.062l1.74,4.959ZM176.6,32.829l2.639-7.511q.318-.928.638-2.059.144.638.638,2.059l2.61,7.511Z"/><path d="M207.947,40.021V37.585h-9.976V19.721h-2.523v20.3Z"/><path d="M235,38.8a5.319,5.319,0,0,0,1.856-4.292,5.929,5.929,0,0,0-.522-2.538A4.882,4.882,0,0,0,234.8,30.1a13.994,13.994,0,0,0-1.885-1.2,20.247,20.247,0,0,0-2.2-.942q-1.074-.407-1.682-.667a10.449,10.449,0,0,1-1.32-.7,3.031,3.031,0,0,1-1.044-.986,2.48,2.48,0,0,1,.595-3.176,4.055,4.055,0,0,1,2.523-.71,4.671,4.671,0,0,1,2.407.58,3.3,3.3,0,0,1,1.392,1.479L235.9,23a4.549,4.549,0,0,0-2.03-2.625,7.137,7.137,0,0,0-3.915-1,6.735,6.735,0,0,0-4.553,1.45,4.53,4.53,0,0,0-1.682,3.567,4.735,4.735,0,0,0,.362,1.87,4.877,4.877,0,0,0,.885,1.421,6.441,6.441,0,0,0,1.406,1.1,12.615,12.615,0,0,0,1.566.827q.681.29,1.726.667a11.985,11.985,0,0,1,3.378,1.74,3.415,3.415,0,0,1,.131,5.089,4.469,4.469,0,0,1-2.929.885,5.079,5.079,0,0,1-4.756-3.016l-2.378.87a6.37,6.37,0,0,0,2.595,3.262,7.91,7.91,0,0,0,4.481,1.262A7.211,7.211,0,0,0,235,38.8Z"/><path d="M256.493,22.128V19.721H242.66v2.407h5.655V40.021h2.523V22.128Z"/><path d="M277.981,40.021l-7.192-20.3H268.44l-7.192,20.3h2.639l1.711-4.959h8.062l1.74,4.959Zm-11.629-7.192,2.639-7.511q.32-.928.638-2.059.145.638.638,2.059l2.61,7.511Z"/><path d="M297.15,22.128V19.721H283.317v2.407h5.655V40.021H291.5V22.128Z"/><path d="M307.59,40.021v-20.3h-2.523v20.3Z"/><path d="M328.484,39.76a7.031,7.031,0,0,0,2.465-1.624,8.945,8.945,0,0,0,1.624-2.407,11.93,11.93,0,0,0,.928-2.842,16.676,16.676,0,0,0,0-6.032,11.93,11.93,0,0,0-.928-2.842,8.945,8.945,0,0,0-1.624-2.407,7.031,7.031,0,0,0-2.465-1.624,8.8,8.8,0,0,0-3.35-.609,8.459,8.459,0,0,0-4.016.913,6.928,6.928,0,0,0-2.7,2.465,11.875,11.875,0,0,0-1.436,3.335,15.666,15.666,0,0,0,0,7.569,11.863,11.863,0,0,0,1.436,3.335,6.92,6.92,0,0,0,2.7,2.465,8.459,8.459,0,0,0,4.016.914A8.8,8.8,0,0,0,328.484,39.76Zm-8.033-4.35a9.359,9.359,0,0,1-1-2.581,13.2,13.2,0,0,1-.319-2.958,11.885,11.885,0,0,1,.334-2.842,10.822,10.822,0,0,1,1-2.6,5.165,5.165,0,0,1,1.871-1.972,5.235,5.235,0,0,1,2.8-.739,5.12,5.12,0,0,1,3.524,1.247,6.487,6.487,0,0,1,1.943,3,13.331,13.331,0,0,1,.536,3.9,12.464,12.464,0,0,1-.319,2.827,10.133,10.133,0,0,1-.986,2.6,5.159,5.159,0,0,1-1.885,1.957,5.313,5.313,0,0,1-2.813.74,5.488,5.488,0,0,1-2.8-.7A5.031,5.031,0,0,1,320.451,35.41Z"/><path d="M355.729,19.721h-2.523V34.192q0,.435.058,1.479-.377-.755-.841-1.508l-8.99-14.442h-2.552v20.3H343.4v-14.5q0-.55-.058-1.421.289.58.812,1.421l9.135,14.5h2.436Z"/><path d="M388.644,40.021v-20.3h-2.523v8.584h-9.57V19.721h-2.523v20.3h2.523V30.683h9.57v9.338Z"/><path d="M412.6,40.021l-7.192-20.3h-2.35l-7.192,20.3h2.64l1.711-4.959h8.061l1.741,4.959Zm-11.629-7.192,2.639-7.511q.318-.928.637-2.059.145.638.638,2.059l2.61,7.511Z"/><path d="M432.317,40.021V37.585h-9.976V19.721h-2.523v20.3Z"/></g></g></svg>